<svg width="48" height="48" viewBox="0 0 48 48" fill="none" xmlns="http://www.w3.org/2000/svg">
  <rect width="48" height="48" rx="10" fill="#0B0A08"/>
  <defs>
    <linearGradient id="f" x1="6" y1="4" x2="44" y2="44" gradientUnits="userSpaceOnUse">
      <stop offset="0" stop-color="#FFC46B"/>
      <stop offset="0.5" stop-color="#F2A93B"/>
      <stop offset="1" stop-color="#FF6B3D"/>
    </linearGradient>
    <radialGradient id="c" cx="0.5" cy="0.4" r="0.7">
      <stop offset="0" stop-color="#FFF3DC"/>
      <stop offset="0.55" stop-color="#FFC46B"/>
      <stop offset="1" stop-color="#F2A93B"/>
    </radialGradient>
  </defs>
  <circle cx="24" cy="24" r="18" stroke="url(#f)" stroke-opacity="0.4" stroke-width="1.4"/>
  <g stroke="url(#f)" stroke-opacity="0.6" stroke-width="1.2">
    <path d="M24 24 24 9"/>
    <path d="M24 24 37 16.5"/>
    <path d="M24 24 37 31.5"/>
    <path d="M24 24 24 39"/>
    <path d="M24 24 11 31.5"/>
    <path d="M24 24 11 16.5"/>
  </g>
  <g fill="url(#f)">
    <circle cx="24" cy="9" r="2.4"/>
    <circle cx="37" cy="16.5" r="2"/>
    <circle cx="37" cy="31.5" r="2.4"/>
    <circle cx="24" cy="39" r="2"/>
    <circle cx="11" cy="31.5" r="2.4"/>
    <circle cx="11" cy="16.5" r="2"/>
  </g>
  <circle cx="24" cy="24" r="5.6" fill="url(#c)"/>
</svg>
